<?xml version="1.0" encoding="utf-8"?>
<!-- Generator: Adobe Illustrator 15.0.0, SVG Export Plug-In . SVG Version: 6.00 Build 0)  -->
<!DOCTYPE svg PUBLIC "-//W3C//DTD SVG 1.1//EN" "http://www.w3.org/Graphics/SVG/1.1/DTD/svg11.dtd">
<svg version="1.1" id="Layer_1" xmlns="http://www.w3.org/2000/svg" xmlns:xlink="http://www.w3.org/1999/xlink" x="0px" y="0px"
	 width="2000px" height="2000px" viewBox="0 0 2000 2000" enable-background="new 0 0 2000 2000" xml:space="preserve">
<title>instagram</title>
<g shape-rendering="geometricPrecision">
	<path shape-rendering="geometricPrecision" fill="none" stroke="#000000" stroke-width="18.2598" stroke-miterlimit="10" d="
		M1880.336,242.977c-45.95-45.981-101.041-68.956-165.211-68.956H357.509c-64.202,0-119.262,23.006-165.243,68.956
		c-45.98,45.95-68.956,101.041-68.956,165.243v1357.585c0,64.171,22.975,119.261,68.956,165.242
		c45.981,45.98,101.073,68.986,165.243,68.986h1357.585c64.171,0,119.262-23.006,165.242-68.986
		c45.981-45.95,68.956-101.041,68.956-165.242V408.219C1949.262,344.018,1926.317,288.958,1880.336,242.977z M778.943,832.016
		c71.716-69.324,157.912-104.017,258.554-104.017c101.44,0,188.034,34.693,259.751,104.017
		c71.716,69.354,107.574,153.157,107.574,251.437c0,98.25-35.858,182.083-107.574,251.407
		c-71.718,69.355-158.311,104.047-259.751,104.047c-100.642,0-186.837-34.691-258.554-104.047
		c-71.717-69.324-107.605-153.157-107.605-251.407C671.338,985.173,707.227,901.371,778.943,832.016L778.943,832.016z
		 M1742.455,1717.094c0,20.582-7.147,37.821-21.411,51.687c-14.294,13.864-31.317,20.797-51.134,20.797H399.104
		c-20.614,0-37.853-6.933-51.718-20.797c-13.864-13.835-20.796-31.104-20.796-51.687V946.738h167.604
		c-15.858,49.938-23.772,101.839-23.772,155.733c0,152.176,55.49,281.959,166.439,389.349
		c110.979,107.36,244.505,161.103,400.637,161.103c103.035,0,198.126-24.601,285.333-73.711
		c87.177-49.171,156.102-115.918,206.837-200.304c50.735-84.416,76.104-176.561,76.104-276.406
		c0-53.895-7.946-105.795-23.805-155.733h160.52L1742.455,1717.094L1742.455,1717.094z M1742.455,655.485
		c0,22.975-7.914,42.392-23.803,58.25c-15.859,15.859-35.245,23.773-58.251,23.773h-206.838c-22.975,0-42.392-7.914-58.249-23.773
		c-15.859-15.858-23.773-35.275-23.773-58.25V459.323c0-22.178,7.914-41.411,23.773-57.668
		c15.857-16.227,35.274-24.355,58.249-24.355h206.838c23.006,0,42.392,8.128,58.251,24.355
		c15.857,16.257,23.803,35.459,23.803,57.668V655.485L1742.455,655.485z"/>
</g>
</svg>
